<svg xmlns="http://www.w3.org/2000/svg" width="200" height="150" viewBox="0 0 200 150">
  <rect width="200" height="150" fill="#f0f0f0" />
  <path d="M87.5,58.3c0-7.1,5.8-12.9,12.9-12.9c7.1,0,12.9,5.8,12.9,12.9c0,7.1-5.8,12.9-12.9,12.9C93.3,71.2,87.5,65.4,87.5,58.3z
    M124.9,83.7c0.8-1.4,2.6-1.8,4-1c1.4,0.8,1.8,2.6,1,4l-16,27.7c-0.8,1.4-2.6,1.8-4,1c-1.4-0.8-1.8-2.6-1-4L124.9,83.7z
    M75,83.8c-0.8-1.4-2.6-1.8-4-1c-1.4,0.8-1.8,2.6-1,4l16,27.7c0.8,1.4,2.6,1.8,4,1c1.4-0.8,1.8-2.6,1-4L75,83.8z" 
    fill="#707070"/>
  <text x="100" y="130" font-family="Arial, sans-serif" font-size="12" text-anchor="middle" fill="#505050">
    Offline Image
  </text>
</svg> 